<svg width="734" height="737" viewBox="0 0 734 737" fill="none" xmlns="http://www.w3.org/2000/svg">
<g clip-path="url(#clip0_126_101)">
<path d="M679.348 293.383C667.76 246.903 646.042 203.56 615.746 166.454C609.656 158.996 603.25 151.826 596.55 144.964C593.952 142.302 591.31 139.687 588.625 137.119C563.784 113.363 535.27 93.6392 504.104 78.7495C460.881 58.0994 413.628 47.2591 365.727 47.0046C365.152 47.0015 364.574 47 364 47L363.612 47.0002C322.328 47.049 281.483 54.9626 243.243 70.2672C237.78 72.4535 232.37 74.7907 227.02 77.2774C193.088 93.0482 162.207 114.526 135.688 140.702C134.414 141.96 133.15 143.228 131.897 144.506C125.838 150.688 120.018 157.121 114.452 163.791C83.7641 200.572 61.5859 243.683 49.5052 290.037C37.4245 336.391 35.7399 384.842 44.572 431.923C44.572 431.923 155.928 383.06 275 427C408.599 476.301 501.633 455.215 571.638 439.348C616.65 429.146 652.141 421.102 682.773 435.314C686.866 414.708 688.939 393.817 688.999 372.934C689 372.623 689 372.311 689 372C689 371.694 689 371.387 688.999 371.081C688.925 344.966 685.703 318.875 679.348 293.383Z" fill="#51F1FC"/>
<path fill-rule="evenodd" clip-rule="evenodd" d="M688.999 371.081C688.925 344.966 685.703 318.875 679.348 293.383C667.76 246.903 646.042 203.56 615.746 166.454C609.656 158.996 603.25 151.826 596.55 144.964C653.553 203.342 688.755 283.101 688.999 371.081ZM688.999 372.934C689 372.316 689 371.699 688.999 371.081C689 371.387 689 371.694 689 372C689 372.311 689 372.623 688.999 372.934ZM364 47C451.138 47 530.266 81.2929 588.625 137.119C563.784 113.363 535.27 93.6392 504.104 78.7495C460.881 58.0994 413.628 47.2591 365.727 47.0046C365.152 47.0015 364.574 47 364 47ZM135.688 140.702C194.294 82.8481 274.779 47.104 363.612 47.0002C322.328 47.049 281.483 54.9626 243.243 70.2672C237.78 72.4535 232.37 74.7907 227.02 77.2774C193.088 93.0482 162.207 114.526 135.688 140.702Z" fill="#05B5FE"/>
<path d="M529.822 518.242C512.749 535.406 522.662 566.657 540.802 582.583C555.473 595.465 579.635 601.663 602.353 592.939C617.246 576.88 630.536 559.313 641.968 540.492C643.045 507.357 616.845 472.006 572.958 486.237C553.557 492.528 557.846 511.531 557.846 511.531C557.846 511.531 546.894 501.078 529.822 518.242Z" fill="#076B7B"/>
<path d="M135.402 490.523C106.006 482.335 86.0006 517.952 86 531.871C85.9999 534.843 86.1018 537.874 86.3042 540.94C104.537 570.846 127.465 597.575 154.063 620.105C189.271 597.419 232.292 502.54 213.383 477.013C204.453 464.958 173.795 510.281 165.246 527.268C167.247 511.191 164.797 498.711 135.402 490.523Z" fill="#076B7B"/>
<path fill-rule="evenodd" clip-rule="evenodd" d="M39 372C39 433.875 56.2909 491.711 86.3042 540.94C86.1018 537.874 85.9999 534.843 86 531.871C86.0006 517.952 106.006 482.335 135.402 490.523C164.797 498.711 167.247 511.191 165.246 527.268C173.795 510.281 204.453 464.958 213.383 477.013C232.292 502.54 189.271 597.419 154.063 620.105C210.696 668.073 283.97 697 364 697C458.176 697 542.996 656.944 602.353 592.939C579.635 601.663 555.473 595.465 540.802 582.583C522.662 566.657 512.749 535.406 529.822 518.242C546.894 501.078 557.846 511.531 557.846 511.531C557.846 511.531 553.557 492.528 572.958 486.237C616.845 472.006 643.045 507.357 641.968 540.492C671.663 491.608 688.826 434.269 688.999 372.934C688.939 393.817 686.866 414.708 682.773 435.314C652.141 421.102 616.65 429.146 571.638 439.348C501.633 455.215 408.599 476.301 275 427C155.928 383.06 44.572 431.923 44.572 431.923C40.8543 412.105 39 392.045 39 372ZM39 372C39 344.424 42.5095 316.879 49.5052 290.037C61.5859 243.683 83.7641 200.572 114.452 163.791C120.018 157.121 125.838 150.688 131.897 144.506C74.4328 203.128 39 283.426 39 372Z" fill="#05B5FE"/>
<path d="M364 35C364.595 35 365.194 35.0017 365.79 35.0049C365.844 35.0052 365.898 35.0065 365.951 35.0068C452.979 35.5004 532.211 68.9958 591.732 123.591C591.896 123.741 592.059 123.891 592.223 124.041C592.471 124.27 592.72 124.5 592.968 124.729C593.19 124.935 593.412 125.142 593.634 125.349C593.887 125.584 594.14 125.82 594.393 126.057C594.49 126.148 594.587 126.239 594.684 126.33C595.431 127.033 596.178 127.737 596.919 128.446L598.999 130.453C601.07 132.468 603.116 134.511 605.136 136.58C605.519 136.972 605.9 137.367 606.281 137.761C607.093 138.6 607.901 139.444 608.704 140.292C608.824 140.419 608.945 140.545 609.064 140.672C664.678 199.568 699.305 278.537 700.938 365.557C700.941 365.75 700.945 365.944 700.948 366.138C700.976 367.771 700.994 369.408 700.999 371.047V371.048C701 371.365 701 371.683 701 372C701 372.324 701 372.646 700.999 372.967V372.969L700.986 374.999C700.985 375.15 700.982 375.3 700.98 375.451C700.977 375.785 700.973 376.118 700.969 376.451C700.962 376.968 700.955 377.484 700.945 378.001C700.549 400.679 697.911 422.815 693.243 444.195L691.569 452.623L691.317 452.506C683.321 485.122 670.579 515.88 653.86 543.997L653.859 544.03L652.224 546.723L628.489 585.795L628.656 580.646C623.091 587.697 617.252 594.521 611.151 601.099L609.256 603.143L609.228 603.152C547.793 668.305 460.641 709 364 709C284.232 709 210.912 681.271 153.193 634.939L153.09 635.007L146.308 629.262L133.946 618.791L134.282 618.574C111.784 597.605 92.157 573.592 76.0586 547.187L74.5244 544.671L74.5215 544.641C56.992 515.309 43.798 483.088 35.8135 448.87L35.5625 448.98L33.9688 440.482C29.9426 420.982 27.6011 400.87 27.1035 380.303C27.0939 379.911 27.0845 379.52 27.0762 379.129C27.0706 378.866 27.0655 378.604 27.0605 378.341C27.0562 378.106 27.0517 377.872 27.0479 377.638C27.0435 377.375 27.0399 377.112 27.0361 376.85C27.0335 376.67 27.0316 376.49 27.0293 376.31C27.0252 375.993 27.0207 375.675 27.0176 375.358C27.015 375.096 27.0137 374.834 27.0117 374.572C27.0001 373.049 26.9978 371.525 27.0068 370.002C27.0076 369.879 27.0079 369.756 27.0088 369.633C27.0093 369.553 27.0101 369.473 27.0107 369.394C27.0127 369.14 27.016 368.886 27.0186 368.633C27.0234 368.138 27.0292 367.643 27.0361 367.148C27.0377 367.042 27.0394 366.936 27.041 366.83C27.0432 366.687 27.0455 366.543 27.0479 366.399C27.056 365.902 27.0649 365.405 27.0752 364.908C27.0769 364.828 27.0783 364.748 27.0801 364.668C28.9102 278.963 62.7468 201.117 117.095 142.638C117.299 142.417 117.505 142.197 117.71 141.978C118.34 141.303 118.972 140.631 119.607 139.962C119.761 139.8 119.915 139.64 120.068 139.479C120.81 138.701 121.555 137.927 122.304 137.156C122.644 136.806 122.985 136.455 123.327 136.106H123.328C124.627 134.781 125.937 133.466 127.258 132.162C127.576 131.848 127.895 131.536 128.214 131.224C128.34 131.1 128.465 130.976 128.591 130.853C128.839 130.611 129.088 130.37 129.337 130.129C129.583 129.89 129.83 129.651 130.077 129.412C130.252 129.243 130.428 129.075 130.604 128.906C130.851 128.669 131.098 128.432 131.346 128.195C131.623 127.93 131.901 127.665 132.18 127.401C132.334 127.255 132.489 127.11 132.644 126.964C133.436 126.215 134.232 125.47 135.032 124.729C135.119 124.649 135.205 124.568 135.292 124.488C194.806 69.4703 274.234 35.6344 361.539 35.0098C362.225 35.0048 362.911 35.0008 363.598 35H364Z" stroke="#F8FEF7" stroke-width="24"/>
<path fill-rule="evenodd" clip-rule="evenodd" d="M566.268 457.015C564.334 460.261 564.978 464.405 567.809 466.926C569.957 468.838 572.938 469.431 575.611 468.582C579.738 465.699 583.906 461.362 585.706 455.491C586.076 454.284 587.366 453.601 588.587 453.968C589.808 454.334 590.498 455.611 590.127 456.819C588.026 463.673 583.348 468.636 578.841 471.913C578.254 472.453 577.598 473.008 576.864 473.576C574.634 475.303 571.696 477.661 569.495 480.175C568.902 480.851 568.763 481.807 569.139 482.621C569.515 483.435 570.336 483.957 571.24 483.957H601.341C602.472 483.957 603.436 483.148 603.621 482.045C605.916 468.319 605.346 459.523 603.29 453.5C601.192 447.355 597.625 444.351 594.711 442.108C591.838 439.897 587.153 438.742 582.966 438.269C578.766 437.794 574.296 437.923 571.645 438.853C571.038 439.066 570.548 439.52 570.294 440.105C570.04 440.69 570.044 441.354 570.305 441.936L572.432 446.669L566.268 457.015ZM559.947 493.286C560.897 490.595 563.465 488.786 566.354 488.786H602.623C605.531 488.786 608.114 490.618 609.048 493.339L611.13 498.923C611.392 499.624 611.29 500.408 610.858 501.021C610.426 501.634 609.718 502 608.963 502H559.726C558.953 502 558.231 501.616 557.802 500.979C557.374 500.342 557.297 499.535 557.596 498.829L559.947 493.286Z" fill="#F8FEF7"/>
<path fill-rule="evenodd" clip-rule="evenodd" d="M109.699 350.942L85.8075 335.079C84.4504 334.253 82.7963 334.473 81.6008 335.337C80.6795 336.003 80.0306 337.051 80 338.298V373.59L80 373.604C80 376.52 83.3579 378.407 85.8075 376.915L109.699 361.148V373.59L109.699 373.602C109.698 376.519 113.056 378.407 115.507 376.915L142.326 359.216C144.558 357.768 144.558 354.334 142.326 352.887L115.507 335.079C114.15 334.253 112.495 334.473 111.3 335.337C110.379 336.003 109.73 337.051 109.699 338.298V350.942Z" fill="#F8FEF7"/>
<path fill-rule="evenodd" clip-rule="evenodd" d="M117.502 461.628L115.586 478.87C114.892 485.112 119.778 490.571 126.059 490.571C130.05 490.571 133.699 488.316 135.484 484.746L137.143 481.428H150.857L152.516 484.746C154.301 488.316 157.95 490.571 161.941 490.571C168.222 490.571 173.108 485.112 172.414 478.87L170.498 461.628C169.727 454.683 163.856 449.428 156.868 449.428H131.132C124.144 449.428 118.273 454.683 117.502 461.628ZM132 458C133.578 458 134.857 459.279 134.857 460.857V463.334H137.334C138.912 463.334 140.191 464.613 140.191 466.191C140.191 467.769 138.912 469.048 137.334 469.048H134.857V471.524C134.857 473.102 133.578 474.381 132 474.381C130.422 474.381 129.143 473.102 129.143 471.524V469.048H126.667C125.089 469.048 123.81 467.769 123.81 466.191C123.81 464.613 125.089 463.334 126.667 463.334H129.143V460.857C129.143 459.279 130.422 458 132 458ZM154.357 471.905C155.935 471.905 157.214 470.626 157.214 469.048C157.214 467.47 155.935 466.191 154.357 466.191C152.779 466.191 151.5 467.47 151.5 469.048C151.5 470.626 152.779 471.905 154.357 471.905ZM162.928 461.964C162.928 463.542 161.649 464.821 160.071 464.821C158.494 464.821 157.214 463.542 157.214 461.964C157.214 460.386 158.494 459.107 160.071 459.107C161.649 459.107 162.928 460.386 162.928 461.964Z" fill="#F8FEF7"/>
<path fill-rule="evenodd" clip-rule="evenodd" d="M113.131 201.714C113.131 199.19 115.156 197.143 117.653 197.143H146.765C149.263 197.143 151.288 199.19 151.288 201.714V214.575H140.554C134.934 214.575 130.378 219.18 130.378 224.861V235.71H117.653C115.156 235.71 113.131 233.664 113.131 231.139V201.714ZM124.67 213.137C124.616 213.139 124.562 213.141 124.507 213.141C121.976 213.141 119.925 211.067 119.925 208.51L119.925 208.479L119.925 208.449C119.925 205.924 121.95 203.878 124.448 203.878L124.509 203.877C127.04 203.877 129.091 205.951 129.091 208.508C129.091 211.012 127.126 213.051 124.67 213.137ZM140.554 220.29C138.056 220.29 136.031 222.336 136.031 224.861V254.286C136.031 256.81 138.056 258.857 140.554 258.857H169.666C172.164 258.857 174.188 256.81 174.188 254.286V224.861C174.188 222.336 172.164 220.29 169.666 220.29H140.554ZM161.215 237.013C163.713 237.013 165.738 234.966 165.738 232.441C165.738 229.917 163.713 227.87 161.215 227.87C158.717 227.87 156.692 229.917 156.692 232.441C156.692 234.966 158.717 237.013 161.215 237.013ZM153.527 246.705C153.527 249.23 151.503 251.277 149.005 251.277C146.507 251.277 144.482 249.23 144.482 246.705C144.482 244.181 146.507 242.134 149.005 242.134C151.503 242.134 153.527 244.181 153.527 246.705Z" fill="#F8FEF7"/>
<path fill-rule="evenodd" clip-rule="evenodd" d="M595 332C595 331.369 595.512 330.857 596.143 330.857H625.857C626.488 330.857 627 331.369 627 332V380C627 380.631 626.488 381.143 625.857 381.143H596.38C596.357 381.133 596.331 381.122 596.301 381.108C596.09 381.009 595.82 380.843 595.564 380.624C595.305 380.403 595.137 380.195 595.049 380.046C595.022 380 595.008 379.968 595 379.949V332ZM596.143 324C591.725 324 588.143 327.582 588.143 332V380C588.143 382.706 589.794 384.716 591.114 385.841C591.828 386.45 592.614 386.953 593.39 387.317C594.096 387.648 595.081 388 596.143 388H625.857C630.275 388 633.857 384.418 633.857 380V332C633.857 327.582 630.275 324 625.857 324H596.143ZM608.714 368.571C606.821 368.571 605.286 370.107 605.286 372C605.286 373.893 606.821 375.429 608.714 375.429H613.286C615.179 375.429 616.714 373.893 616.714 372C616.714 370.107 615.179 368.571 613.286 368.571H608.714Z" fill="#F8FEF7"/>
<path d="M717 372C717 418.357 707.869 464.259 690.129 507.087C672.39 549.915 646.388 588.83 613.609 621.609C580.83 654.388 541.915 680.39 499.087 698.129C456.259 715.869 410.357 725 364 725C317.643 725 271.741 715.869 228.913 698.129C186.085 680.39 147.17 654.388 114.391 621.609C81.6122 588.83 55.6104 549.915 37.8705 507.087C20.1306 464.259 11 418.357 11 372" stroke="#080A44" stroke-width="16" stroke-linecap="round" stroke-linejoin="round"/>
<mask id="mask0_126_101" style="mask-type:alpha" maskUnits="userSpaceOnUse" x="42" y="-13" width="643" height="710">
<path d="M364 697C220.278 697 101.202 612.971 55.8371 472.37C10.9467 333.237 93.5447 -13 93.5447 -13L624.455 -12.9999C624.455 -12.9999 717.053 333.237 672.162 472.37C626.798 612.971 507.722 697 364 697Z" fill="#D9D9D9"/>
</mask>
<g mask="url(#mask0_126_101)">
<mask id="mask1_126_101" style="mask-type:alpha" maskUnits="userSpaceOnUse" x="42" y="-13" width="643" height="710">
<path d="M364 697C220.278 697 101.202 612.971 55.8371 472.37C10.9467 333.237 93.5447 -13 93.5447 -13L624.455 -12.9999C624.455 -12.9999 717.053 333.237 672.162 472.37C626.798 612.971 507.722 697 364 697Z" fill="#D9D9D9"/>
</mask>
<g mask="url(#mask1_126_101)">
<path d="M332 756H394L379.036 658H346.988L332 756Z" fill="#323755"/>
<path d="M379.153 657.772L401.406 611.478L394.273 594.478H332.186L325.594 611.478L346.847 657.772H379.153Z" fill="#323755"/>
<path d="M269.269 539L332.186 594.478H394.273L459.004 538C459.004 538 458.872 533.129 458.498 524.54C455.715 460.643 439.506 191 364.137 191C289.359 191 272.816 457.189 269.843 523.954C269.417 533.527 269.269 539 269.269 539Z" fill="#EE5777"/>
<path d="M269.269 539C246.347 605.295 247.529 688.034 259.137 756H332L346.988 658H379.036L394 756H467.137C476.098 689.747 478.413 605.975 459.004 538L394.273 594.478L401.406 611.478L379.153 657.772H346.847L325.594 611.478L332.186 594.478L269.269 539Z" fill="#FAFEFD"/>
<path fill-rule="evenodd" clip-rule="evenodd" d="M394 756L379.036 658H346.988L332 756H394ZM332.186 594.478H394.273L401.406 611.478L379.153 657.772H346.847L325.594 611.478L332.186 594.478Z" fill="#323755"/>
<path d="M513.091 771.538L615.544 593.212L458.498 524.54C458.872 533.129 459.004 538 459.004 538C478.413 605.975 476.098 689.747 467.137 756H394H332H259.137C247.529 688.034 246.347 605.295 269.269 539C269.269 539 269.417 533.527 269.843 523.954L111.456 593.212L213.909 771.538H513.091Z" fill="#323755"/>
<path d="M364.137 183.5C376.024 183.5 386.307 188.881 394.962 197.351C403.527 205.732 410.813 217.414 417.092 230.979C429.655 258.123 438.968 294.565 445.914 332.456C459.2 404.931 464.141 484.589 465.776 519.536L626.216 589.692L517.432 779.038H209.567L100.784 589.692L262.566 518.949C264.287 482.858 269.346 403.199 282.688 331.076C289.652 293.436 298.959 257.334 311.477 230.468C317.733 217.04 324.986 205.483 333.507 197.192C342.118 188.814 352.337 183.5 364.137 183.5ZM122.127 596.731L218.25 764.038H508.75L604.872 596.731L466.451 536.203C466.459 536.446 466.467 536.662 466.473 536.851C486.016 606.104 483.549 690.616 474.569 757.005L467.137 763.5H259.137L251.743 757.263C240.085 689.003 238.704 605.392 261.807 537.642C261.823 537.131 261.846 536.456 261.874 535.623L122.127 596.731ZM403.283 596.569L408.322 608.576L408.165 614.728L386.801 659.17L400.441 748.5H460.553C468.245 687.611 469.974 613.723 454.836 551.589L403.283 596.569ZM340.734 748.5H385.268L372.595 665.5H353.429L340.734 748.5ZM272.898 552.199C254.758 612.911 255.586 686.18 265.501 748.5H325.56L339.226 659.146L318.778 614.607L318.602 608.767L323.302 596.644L272.898 552.199ZM333.733 611.231L351.656 650.271H374.437L393.185 611.269L389.287 601.979H337.321L333.733 611.231ZM364.137 198.5C357.242 198.5 350.586 201.504 343.968 207.943C337.259 214.471 330.93 224.232 325.073 236.803C313.365 261.933 304.33 296.552 297.438 333.805C283.681 408.17 278.819 490.987 277.336 524.287C277.124 529.049 276.981 532.787 276.892 535.33C276.887 535.46 276.883 535.587 276.879 535.711L335.021 586.979H391.461L451.393 534.687C451.314 532.417 451.189 529.097 451.005 524.866C449.617 492.999 444.885 410.034 431.16 335.161C424.285 297.655 415.241 262.692 403.479 237.28C397.596 224.568 391.229 214.685 384.471 208.071C377.802 201.546 371.091 198.5 364.137 198.5Z" fill="#080A44"/>
<path d="M466.636 495L393 587.946L441.5 670L488 584.599L466.636 495Z" fill="#FAFEFD"/>
<path d="M260.364 496L334 588.946L285.5 671L239 585.599L260.364 496Z" fill="#FAFEFD"/>
<path d="M339.879 584.288L340.456 592.762L291.956 674.816L278.913 674.587L232.413 589.186L231.704 583.859L253.068 494.261L266.242 491.343L339.879 584.288ZM473.932 493.261L495.296 582.859L494.587 588.186L448.087 673.587L435.044 673.816L386.544 591.762L387.121 583.288L460.758 490.343L473.932 493.261ZM246.963 584.539L285.768 655.808L324.922 589.564L264.076 512.764L246.963 584.539ZM402.077 588.564L441.231 654.808L480.036 583.539L462.923 511.764L402.077 588.564Z" fill="#080A44"/>
<path d="M245.019 421.999L239.848 411.167C236.671 404.511 229.575 400.769 222.244 401.574C213.66 402.517 206.207 402.715 192.519 401.499C207.26 426.07 227.96 425.649 245.019 421.999Z" fill="#080A44"/>
<path d="M268.019 472.5L247.019 426.5C240.019 434.5 235.519 441 219.019 446.5C237.595 474.812 256.559 476.231 268.019 472.5Z" fill="#080A44"/>
<path d="M480 421.999L485.17 411.167C488.347 404.511 495.443 400.769 502.775 401.574C511.359 402.517 518.812 402.715 532.5 401.499C517.759 426.07 497.059 425.649 480 421.999Z" fill="#080A44"/>
<path d="M457 472.5L478 426.5C485 434.5 489.5 441 506 446.5C487.424 474.812 468.46 476.231 457 472.5Z" fill="#080A44"/>
<path d="M199.519 288.498C201.826 293.556 203.019 301.499 203.019 301.499C188.475 316.023 190.653 333.938 203.019 368.999C182.018 347 175.518 308.499 199.519 288.498Z" fill="#FAFEFD"/>
<path fill-rule="evenodd" clip-rule="evenodd" d="M241.055 401.501L219.055 278.5C172.465 263.899 148.836 380.34 241.055 401.501ZM215.018 311L231.018 389C224.701 385.675 218.606 375.422 213.026 366.035C210.213 361.304 207.532 356.793 205.018 353.5C188.018 331.224 195.518 294.5 215.018 311ZM203.019 301.499C203.019 301.499 201.826 293.556 199.519 288.498C175.518 308.499 182.018 347 203.019 368.999C190.653 333.938 188.475 316.023 203.019 301.499Z" fill="url(#paint0_linear_126_101)"/>
<path d="M202.519 313.999C206.543 309.78 212.518 315 212.518 315L200.518 332C200.518 332 198.494 318.219 202.519 313.999Z" fill="url(#paint1_linear_126_101)"/>
<path fill-rule="evenodd" clip-rule="evenodd" d="M231.018 389L215.018 311C195.518 294.5 188.018 331.224 205.018 353.5C207.532 356.793 210.213 361.304 213.026 366.035C218.606 375.422 224.701 385.675 231.018 389ZM212.518 315C212.518 315 206.543 309.78 202.519 313.999C198.494 318.219 200.518 332 200.518 332L212.518 315Z" fill="#EE5777"/>
<path d="M525.5 288.498C523.192 293.556 522 301.499 522 301.499C536.544 316.023 534.365 333.938 522 368.999C543 347 549.5 308.499 525.5 288.498Z" fill="#FAFEFD"/>
<path fill-rule="evenodd" clip-rule="evenodd" d="M483.964 401.501L505.964 278.5C552.553 263.899 576.182 380.34 483.964 401.501ZM510.001 311L494 389C500.317 385.675 506.413 375.422 511.993 366.035C514.805 361.304 517.487 356.793 520 353.5C537 331.224 529.5 294.5 510.001 311ZM522 301.499C522 301.499 523.192 293.556 525.5 288.498C549.5 308.499 543 347 522 368.999C534.365 333.938 536.544 316.023 522 301.499Z" fill="url(#paint2_linear_126_101)"/>
<path d="M522.5 313.999C518.476 309.78 512.5 315 512.5 315L524.5 332C524.5 332 526.524 318.219 522.5 313.999Z" fill="url(#paint3_linear_126_101)"/>
<path fill-rule="evenodd" clip-rule="evenodd" d="M494 389L510.001 311C529.5 294.5 537 331.224 520 353.5C517.487 356.793 514.805 361.304 511.993 366.035C506.413 375.422 500.317 385.675 494 389ZM512.5 315C512.5 315 518.476 309.78 522.5 313.999C526.524 318.219 524.5 332 524.5 332L512.5 315Z" fill="#EE5777"/>
<path d="M184.004 283.91C192.664 273.041 205.637 266.763 220.585 271.128L221.298 271.343L225.637 272.704L250.436 411.348L239.377 408.811C189.4 397.343 170.278 359.509 170.502 326.539C170.613 310.284 175.411 294.694 184.004 283.91ZM503.721 271.343C518.969 266.564 532.217 272.869 541.015 283.91C549.608 294.694 554.406 310.284 554.517 326.539C554.741 359.509 535.619 397.343 485.642 408.811L474.583 411.348L499.382 272.704L503.721 271.343ZM212.563 284.809C206.23 284.282 200.537 287.23 195.734 293.258C189.676 300.861 185.595 312.966 185.502 326.64C185.336 351.006 197.778 378.72 231.543 390.92L212.563 284.809ZM529.284 293.258C524.481 287.23 518.788 284.282 512.454 284.809L493.475 390.92C527.24 378.72 539.682 351.007 539.517 326.64C539.423 312.966 535.343 300.861 529.284 293.258Z" fill="#080A44"/>
<path d="M363.5 106C462.339 106 501.858 171.005 509.677 269.186C512.328 302.481 498.104 371.339 487.505 416.656C480.854 445.09 464.361 470.069 441.494 488.231L415.533 508.851C400.736 520.603 382.396 527 363.5 527Lnan nanCnan nan nan nan nan nanCnan nan nan nan nan nanCnan nan nan nan nan nanCnan nan nan nan nan nanCnan nan nan nan nan nanCnan nan nan nan nan nanCnan nan nan nan nan nanCnan nan nan nan nan nanCnan nan nan nan nan nanCnan nan nan nan nan nanCnan nan nan nan nan nanCnan nan nan nan nan nanCnan nan nan nan nan nanCnan nan nan nan nan nanCnan nan nan nan nan nanCnan nan nan nan nan nanCnan nan nan nan nan nanCnan nan nan nan nan nanCnan nan nan nan nan nanCnan nan nan nan nan nanCnan nan nan nan nan nanCnan nan nan nan nan nanCnan nan nan nan nan nanCnan nan nan nan nan nanCnan nan nan nan nan nanCnan nan nan nan nan nanCnan nan nan nan nan nanCnan nan nan nan nan nanCnan nan nan nan nan nanCnan nan nan nan nan nanCnan nan nan nan nan nanCnan nan nan nan nan nanCnan nan nan nan nan nanCnan nan nan nan nan nanCnan nan nan nan nan nanCnan nan nan nan nan nanCnan nan nan nan nan nanCnan nan nan nan nan nanCnan nan nan nan nan nanCnan nan nan nan nan nanCnan nan nan nan nan nanCnan nan nan nan nan nanCnan nan nan nan nan nanCnan nan nan nan nan nanCnan nan nan nan nan nanCnan nan nan nan nan nanCnan nan nan nan nan nanCnan nan nan nan nan nanCnan nan nan nan nan nanCnan nan nan nan nan nanCnan nan nan nan nan nanCnan nan nan nan nan nanCnan nan nan nan nan nanCnan nan nan nan nan nanCnan nan nan nan nan nanCnan nan nan nan nan nanCnan nan nan nan nan nanCnan nan nan nan nan nanCnan nan nan nan nan nanCnan nan nan nan nan nanCnan nan nan nan nan nanCnan nan nan nan nan nanCnan nan nan nan nan nanCnan nan nan nan nan nanCnan nan nan nan nan nanCnan nan nan nan nan nanCnan nan nan nan nan nanCnan nan nan nan nan nanCnan nan nan nan nan nanCnan nan nan nan nan nanCnan nan nan nan nan nanCnan nan nan nan nan nanCnan nan nan nan nan nanCnan nan nan nan nan nanCnan nan nan nan nan nanCnan nan nan nan nan nanCnan nan nan nan nan nanCnan nan nan nan nan nanCnan nan nan nan nan nanCnan nan nan nan nan nanCnan nan nan nan nan nanCnan nan nan nan nan nanCnan nan nan nan nan nanCnan nan nan nan nan nanCnan nan nan nan nan nanCnan nan nan nan nan nanCnan nan nan nan nan nanCnan nan nan nan nan nanCnan nan nan nan nan nanCnan nan nan nan nan nanCnan nan nan nan nan nanCnan nan nan nan nan nanCnan nan nan nan nan nanCnan nan nan nan nan nanCnan nan nan nan nan nanCnan nan nan nan nan nanCnan nan nan nan nan nanCnan nan nan nan nan nanCnan nan nan nan nan nanCnan nan nan nan nan nanCnan nan nan nan nan nanCnan nan nan nan nan nanCnan nan nan nan nan nanCnan nan nan nan nan nanCnan nan nan nan nan nanCnan nan nan nan nan nanCnan nan nan nan nan nanCnan nan nan nan nan nanCnan nan nan nan nan nanCnan nan nan nan nan nanCnan nan nan nan nan nanCnan nan nan nan nan nanCnan nan nan nan nan nanCnan nan nan nan nan nanCnan nan nan nan nan nanCnan nan nan nan nan nanCnan nan nan nan nan nanCnan nan nan nan nan nanCnan nan nan nan nan nanCnan nan nan nan nan nanCnan nan nan nan nan nanCnan nan nan nan nan nanCnan nan nan nan nan nanCnan nan nan nan nan nanCnan nan nan nan nan nanCnan nan nan nan nan nanCnan nan -nan -nan -nan -nanL-nan -nanC-nan -nan nan nan nan nanCnan nan nan nan nan nanCnan nan nan nan nan nanCnan nan nan nan nan nanCnan nan nan nan nan nanCnan nan nan nan nan nanCnan nan nan nan nan nanCnan nan nan nan nan nanCnan nan nan nan nan nanCnan nan nan nan nan nanCnan nan nan nan nan nanCnan nan nan nan nan nanCnan nan nan nan nan nanCnan nan nan nan nan nanCnan nan nan nan nan nanCnan nan nan nan nan nanCnan nan nan nan nan nanCnan nan nan nan nan nanCnan nan nan nan nan nanCnan nan nan nan nan nanCnan nan nan nan nan nanCnan nan nan nan nan nanCnan nan nan nan nan nanCnan nan nan nan nan nanCnan nan nan nan nan nanCnan nan nan nan nan nanCnan nan nan nan nan nanCnan nan nan nan nan nanCnan nan nan nan nan nanCnan nan nan nan nan nanCnan nan nan nan nan nanCnan nan nan nan nan nanCnan nan nan nan nan nanCnan nan nan nan nan nanCnan nan nan nan nan nanCnan nan nan nan nan nanCnan nan nan nan nan nanCnan nan nan nan nan nanCnan nan nan nan nan nanCnan nan nan nan nan nanCnan nan nan nan nan nanCnan nan nan nan nan nanCnan nan nan nan nan nanCnan nan nan nan nan nanCnan nan nan nan nan nanCnan nan nan nan nan nanCnan nan nan nan nan nanCnan nan nan nan nan nanCnan nan nan nan nan nanCnan nan nan nan nan nanCnan nan nan nan nan nanCnan nan nan nan nan nanCnan nan nan nan nan nanCnan nan nan nan nan nanCnan nan nan nan nan nanCnan nan nan nan nan nanCnan nan nan nan nan nanCnan nan nan nan nan nanCnan nan nan nan nan nanCnan nan nan nan nan nanCnan nan nan nan nan nanCnan nan nan nan nan nanCnan nan nan nan nan nanCnan nan nan nan nan nanCnan nan nan nan nan nanCnan nan nan nan nan nanCnan nan nan nan nan nanCnan nan nan nan nan nanCnan nan nan nan nan nanCnan nan nan nan nan nanCnan nan nan nan nan nanCnan nan nan nan nan nanCnan nan nan nan nan nanCnan nan nan nan nan nanCnan nan nan nan nan nanCnan nan nan nan nan nanCnan nan nan nan nan nanCnan nan nan nan nan nanCnan nan nan nan nan nanCnan nan nan nan nan nanCnan nan nan nan nan nanCnan nan nan nan nan nanCnan nan nan nan nan nanCnan nan nan nan nan nanCnan nan nan nan nan nanCnan nan nan nan nan nanCnan nan nan nan nan nanCnan nan nan nan nan nanCnan nan nan nan nan nanCnan nan nan nan nan nanCnan nan nan nan nan nanCnan nan nan nan nan nanCnan nan nan nan nan nanCnan nan nan nan nan nanCnan nan nan nan nan nanCnan nan nan nan nan nanCnan nan nan nan nan nanCnan nan nan nan nan nanCnan nan nan nan nan nanCnan nan nan nan nan nanCnan nan nan nan nan nanCnan nan nan nan nan nanCnan nan nan nan nan nanCnan nan nan nan nan nanCnan nan nan nan nan nanCnan nan nan nan nan nanCnan nan nan nan nan nanCnan nan nan nan nan nanCnan nan nan nan nan nanCnan nan nan nan nan nanCnan nan nan nan nan nanCnan nan nan nan nan nanCnan nan nan nan nan nanCnan nan nan nan nan nanCnan nan nan nan nan nanCnan nan nan nan nan nanCnan nan nan nan nan nanCnan nan nan nan nan nanCnan nan nan nan nan nanCnan nan nan nan nan nanCnan nan nan nan nan nanCnan nan nan nan nan nanCnan nan nan nan nan nanCnan nan nan nan nan nanCnan nan nan nan nan nanCnan nan nan nan nan nanCnan nan nan nan nan nanL363.5 527C344.604 527 326.264 520.603 311.467 508.851L285.506 488.231C262.639 470.069 246.146 445.09 239.495 416.656C228.896 371.339 214.672 302.481 217.323 269.186C225.142 171.005 264.661 106 363.5 106Z" fill="url(#paint4_linear_126_101)"/>
<path d="M363.5 106C462.339 106 501.858 171.005 509.677 269.186C512.328 302.481 498.104 371.339 487.505 416.656C480.854 445.09 464.361 470.069 441.494 488.231L415.533 508.851C400.736 520.603 382.396 527 363.5 527Lnan nanCnan nan nan nan nan nanCnan nan nan nan nan nanCnan nan nan nan nan nanCnan nan nan nan nan nanCnan nan nan nan nan nanCnan nan nan nan nan nanCnan nan nan nan nan nanCnan nan nan nan nan nanCnan nan nan nan nan nanCnan nan nan nan nan nanCnan nan nan nan nan nanCnan nan nan nan nan nanCnan nan nan nan nan nanCnan nan nan nan nan nanCnan nan nan nan nan nanCnan nan nan nan nan nanCnan nan nan nan nan nanCnan nan nan nan nan nanCnan nan nan nan nan nanCnan nan nan nan nan nanCnan nan nan nan nan nanCnan nan nan nan nan nanCnan nan nan nan nan nanCnan nan nan nan nan nanCnan nan nan nan nan nanCnan nan nan nan nan nanCnan nan nan nan nan nanCnan nan nan nan nan nanCnan nan nan nan nan nanCnan nan nan nan nan nanCnan nan nan nan nan nanCnan nan nan nan nan nanCnan nan nan nan nan nanCnan nan nan nan nan nanCnan nan nan nan nan nanCnan nan nan nan nan nanCnan nan nan nan nan nanCnan nan nan nan nan nanCnan nan nan nan nan nanCnan nan nan nan nan nanCnan nan nan nan nan nanCnan nan nan nan nan nanCnan nan nan nan nan nanCnan nan nan nan nan nanCnan nan nan nan nan nanCnan nan nan nan nan nanCnan nan nan nan nan nanCnan nan nan nan nan nanCnan nan nan nan nan nanCnan nan nan nan nan nanCnan nan nan nan nan nanCnan nan nan nan nan nanCnan nan nan nan nan nanCnan nan nan nan nan nanCnan nan nan nan nan nanCnan nan nan nan nan nanCnan nan nan nan nan nanCnan nan nan nan nan nanCnan nan nan nan nan nanCnan nan nan nan nan nanCnan nan nan nan nan nanCnan nan nan nan nan nanCnan nan nan nan nan nanCnan nan nan nan nan nanCnan nan nan nan nan nanCnan nan nan nan nan nanCnan nan nan nan nan nanCnan nan nan nan nan nanCnan nan nan nan nan nanCnan nan nan nan nan nanCnan nan nan nan nan nanCnan nan nan nan nan nanCnan nan nan nan nan nanCnan nan nan nan nan nanCnan nan nan nan nan nanCnan nan nan nan nan nanCnan nan nan nan nan nanCnan nan nan nan nan nanCnan nan nan nan nan nanCnan nan nan nan nan nanCnan nan nan nan nan nanCnan nan nan nan nan nanCnan nan nan nan nan nanCnan nan nan nan nan nanCnan nan nan nan nan nanCnan nan nan nan nan nanCnan nan nan nan nan nanCnan nan nan nan nan nanCnan nan nan nan nan nanCnan nan nan nan nan nanCnan nan nan nan nan nanCnan nan nan nan nan nanCnan nan nan nan nan nanCnan nan nan nan nan nanCnan nan nan nan nan nanCnan nan nan nan nan nanCnan nan nan nan nan nanCnan nan nan nan nan nanCnan nan nan nan nan nanCnan nan nan nan nan nanCnan nan nan nan nan nanCnan nan nan nan nan nanCnan nan nan nan nan nanCnan nan nan nan nan nanCnan nan nan nan nan nanCnan nan nan nan nan nanCnan nan nan nan nan nanCnan nan nan nan nan nanCnan nan nan nan nan nanCnan nan nan nan nan nanCnan nan nan nan nan nanCnan nan nan nan nan nanCnan nan nan nan nan nanCnan nan nan nan nan nanCnan nan nan nan nan nanCnan nan nan nan nan nanCnan nan nan nan nan nanCnan nan nan nan nan nanCnan nan nan nan nan nanCnan nan nan nan nan nanCnan nan nan nan nan nanCnan nan nan nan nan nanCnan nan nan nan nan nanCnan nan nan nan nan nanCnan nan nan nan nan nanCnan nan nan nan nan nanCnan nan -nan -nan -nan -nanL-nan -nanC-nan -nan nan nan nan nanCnan nan nan nan nan nanCnan nan nan nan nan nanCnan nan nan nan nan nanCnan nan nan nan nan nanCnan nan nan nan nan nanCnan nan nan nan nan nanCnan nan nan nan nan nanCnan nan nan nan nan nanCnan nan nan nan nan nanCnan nan nan nan nan nanCnan nan nan nan nan nanCnan nan nan nan nan nanCnan nan nan nan nan nanCnan nan nan nan nan nanCnan nan nan nan nan nanCnan nan nan nan nan nanCnan nan nan nan nan nanCnan nan nan nan nan nanCnan nan nan nan nan nanCnan nan nan nan nan nanCnan nan nan nan nan nanCnan nan nan nan nan nanCnan nan nan nan nan nanCnan nan nan nan nan nanCnan nan nan nan nan nanCnan nan nan nan nan nanCnan nan nan nan nan nanCnan nan nan nan nan nanCnan nan nan nan nan nanCnan nan nan nan nan nanCnan nan nan nan nan nanCnan nan nan nan nan nanCnan nan nan nan nan nanCnan nan nan nan nan nanCnan nan nan nan nan nanCnan nan nan nan nan nanCnan nan nan nan nan nanCnan nan nan nan nan nanCnan nan nan nan nan nanCnan nan nan nan nan nanCnan nan nan nan nan nanCnan nan nan nan nan nanCnan nan nan nan nan nanCnan nan nan nan nan nanCnan nan nan nan nan nanCnan nan nan nan nan nanCnan nan nan nan nan nanCnan nan nan nan nan nanCnan nan nan nan nan nanCnan nan nan nan nan nanCnan nan nan nan nan nanCnan nan nan nan nan nanCnan nan nan nan nan nanCnan nan nan nan nan nanCnan nan nan nan nan nanCnan nan nan nan nan nanCnan nan nan nan nan nanCnan nan nan nan nan nanCnan nan nan nan nan nanCnan nan nan nan nan nanCnan nan nan nan nan nanCnan nan nan nan nan nanCnan nan nan nan nan nanCnan nan nan nan nan nanCnan nan nan nan nan nanCnan nan nan nan nan nanCnan nan nan nan nan nanCnan nan nan nan nan nanCnan nan nan nan nan nanCnan nan nan nan nan nanCnan nan nan nan nan nanCnan nan nan nan nan nanCnan nan nan nan nan nanCnan nan nan nan nan nanCnan nan nan nan nan nanCnan nan nan nan nan nanCnan nan nan nan nan nanCnan nan nan nan nan nanCnan nan nan nan nan nanCnan nan nan nan nan nanCnan nan nan nan nan nanCnan nan nan nan nan nanCnan nan nan nan nan nanCnan nan nan nan nan nanCnan nan nan nan nan nanCnan nan nan nan nan nanCnan nan nan nan nan nanCnan nan nan nan nan nanCnan nan nan nan nan nanCnan nan nan nan nan nanCnan nan nan nan nan nanCnan nan nan nan nan nanCnan nan nan nan nan nanCnan nan nan nan nan nanCnan nan nan nan nan nanCnan nan nan nan nan nanCnan nan nan nan nan nanCnan nan nan nan nan nanCnan nan nan nan nan nanCnan nan nan nan nan nanCnan nan nan nan nan nanCnan nan nan nan nan nanCnan nan nan nan nan nanCnan nan nan nan nan nanCnan nan nan nan nan nanCnan nan nan nan nan nanCnan nan nan nan nan nanCnan nan nan nan nan nanCnan nan nan nan nan nanCnan nan nan nan nan nanCnan nan nan nan nan nanCnan nan nan nan nan nanCnan nan nan nan nan nanCnan nan nan nan nan nanCnan nan nan nan nan nanCnan nan nan nan nan nanCnan nan nan nan nan nanCnan nan nan nan nan nanCnan nan nan nan nan nanCnan nan nan nan nan nanCnan nan nan nan nan nanCnan nan nan nan nan nanCnan nan nan nan nan nanCnan nan nan nan nan nanCnan nan nan nan nan nanCnan nan nan nan nan nanL363.5 527C344.604 527 326.264 520.603 311.467 508.851L285.506 488.231C262.639 470.069 246.146 445.09 239.495 416.656C228.896 371.339 214.672 302.481 217.323 269.186C225.142 171.005 264.661 106 363.5 106Z" fill="url(#paint5_radial_126_101)" fill-opacity="0.8"/>
<path d="M238 318C296 386 441 380 494 318C478.766 399.123 465.981 432.788 426 445L424 499L396 526H336L308 499L306 445C251.659 428.83 249.982 385.128 238 318Z" fill="url(#paint6_radial_126_101)"/>
<path d="M269.175 303.092C278.149 297.447 288.351 296.047 298.917 295.18L341.266 289.703C345.687 289.34 349.327 293.13 348.786 297.533L344.834 335C343.993 335.022 344.666 319.5 344 318C343.114 316.005 341 319.391 336.5 319.5C307.771 320.193 293.72 319.832 260.586 316.824C257.737 316.566 256.844 310.848 259.265 309.326L269.175 303.092Z" fill="url(#paint7_linear_126_101)" fill-opacity="0.8"/>
<path d="M463.165 303.092C454.191 297.447 443.989 296.047 433.423 295.18L391.074 289.703C386.652 289.34 383.013 293.13 383.553 297.533L388.34 353C389.18 353.022 387.674 319.5 388.34 318C389.225 316.005 391.34 319.391 395.84 319.5C424.569 320.193 438.619 319.832 471.754 316.824C474.602 316.566 475.496 310.848 473.074 309.326L463.165 303.092Z" fill="url(#paint8_linear_126_101)" fill-opacity="0.8"/>
<path d="M369.718 419.023C366.704 420.287 363.305 420.267 360.306 418.968L346.577 413.018C342.362 411.192 338.858 407.251 338.5 403C338.323 400.9 342.994 353.537 344 351.502C345.006 349.467 342.5 392.5 342.5 392.5L343.298 391.211C344.647 388.483 347.427 386.756 350.47 386.756H380.924C384.022 386.756 386.842 388.545 388.162 391.349L390.666 396.669C393.574 402.848 390.747 410.205 384.449 412.846L369.718 419.023Z" fill="url(#paint9_linear_126_101)" fill-opacity="0.8"/>
<path d="M320 445C320 445 325.504 443.545 331 443C343.533 441.76 353.656 442 366.25 442C378.844 442 386.467 441.76 399 443C404.496 443.545 411.5 445 411.5 445C411.5 445 408.679 450.5 405.5 450.5C401 450.5 381.816 450.5 366 450.5C350.184 450.5 330 450.5 326.5 450.5C323.462 450.5 320 445 320 445Z" fill="#EE5777"/>
<path d="M229.5 215.5C229.5 141.494 276.494 134 350.5 134H381.5C495.5 146 519.5 201 494.5 319.5C472 250.5 426 335 366.5 256.5C339.455 220.819 286.5 216 250 228.5C250 228.5 246 226 229.5 215.5Z" fill="#EE5777"/>
<path d="M365 467C371.278 467 380.106 469.498 380.106 469.498L370.143 482.419C375.138 501.442 382.098 507.871 401 513L388 525.5H341.5L329.5 513C347.259 507.344 354.264 501.228 358.857 482.419L349.895 469.498C349.895 469.498 358.722 467 365 467Z" fill="#746C69" fill-opacity="0.8"/>
<path d="M252.535 225.998C253.747 224.786 254.828 223.056 255.746 220.946L255.535 221C246.833 216.013 240.663 214.445 234.856 208.485C229.345 232.5 226.329 242 224.323 267.186C223.088 282.695 225.514 302.032 229.53 325.753C234.48 315.62 234.105 307.026 237.535 297.498C241.507 286.465 246.368 278.173 245.242 267.013C243.591 250.647 237.968 240.565 252.535 225.998Z" fill="#746C69" fill-opacity="0.6"/>
<path d="M481.211 222.998C479.999 221.786 478.918 220.056 478 217.946L478.212 218C486.913 213.013 487.083 214.445 492.89 208.485C498.402 232.5 501.417 242 503.423 267.186C504.658 282.695 502.232 302.032 498.216 325.753C493.266 315.62 493.641 307.026 490.211 297.498C486.239 286.465 487.378 275.173 488.504 264.013C490.155 247.647 495.778 237.565 481.211 222.998Z" fill="#746C69" fill-opacity="0.6"/>
<path d="M233.167 208.5L233.167 221C221.607 301.174 244.498 377.439 260.167 442.5L257.667 449C237.293 370.127 206.667 270.5 233.167 208.5Z" fill="#F8FEF7"/>
<path d="M500.167 279.5L498.167 286C492.727 347.174 485.667 379 470.667 444V449C491.041 370.127 505.667 317 500.167 279.5Z" fill="#F8FEF7"/>
<path d="M266.091 308.374C269.479 307.785 273.509 307.205 278.741 306.83C286.942 306.243 298.095 306.161 314.356 307.335C318.24 307.616 322.416 307.968 326.912 308.403C324.5 348 268 348 266.091 308.374Z" fill="#F8FEF7"/>
<path d="M308.035 324.488C301.337 330.011 291.663 330.011 284.965 324.488C279.524 320.002 277.449 314.133 278.741 307.83C260.673 309.124 256.936 311.865 244.5 309.999C247 299.999 274 292.5 297.5 290.499C321.413 288.464 332.789 308.999 332.789 308.999C325.998 308.279 319.882 308.735 314.356 308.336C315.438 314.498 313.331 320.121 308.035 324.488Z" fill="#080A44"/>
<path d="M251 274C271.651 257.813 298.736 258.14 351 286.5L347 298C308.601 283.759 266.5 274 236 303L251 274Z" fill="#080A44"/>
<path d="M466.909 309.374C463.521 308.785 459.491 308.205 454.259 307.831C446.058 307.243 434.905 307.161 418.644 308.336C414.76 308.616 410.584 308.969 406.088 309.403C408.5 349 465 349 466.909 309.374Z" fill="#F8FEF7"/>
<path d="M424.965 325.489C431.663 331.012 441.337 331.012 448.035 325.489C453.476 321.002 455.551 315.134 454.259 308.831C472.327 310.124 476.064 312.865 488.5 311C486 301 459 293.5 435.5 291.499C411.587 289.464 400.211 309.999 400.211 309.999C407.002 309.28 413.118 309.735 418.644 309.336C417.562 315.498 419.669 321.121 424.965 325.489Z" fill="#080A44"/>
<path d="M482 275C461.349 258.813 434.264 259.14 382 287.5L386 299C424.399 284.759 466.5 275 497 304L482 275Z" fill="#080A44"/>
<path d="M363.5 98.5C414.745 98.5 451.65 115.458 476.538 146.041C501.133 176.264 513.19 218.828 517.153 268.591C518.56 286.26 515.505 312.622 510.956 339.657C506.37 366.917 500.125 395.631 494.808 418.363C487.749 448.543 470.266 474.956 446.158 494.104L420.197 514.724C404.074 527.529 384.09 534.5 363.5 534.5C342.91 534.5 322.926 527.53 306.803 514.724L280.842 494.104C256.734 474.956 239.251 448.543 232.192 418.363C226.875 395.631 220.63 366.917 216.044 339.657C211.495 312.622 208.44 286.26 209.847 268.591C213.81 218.828 225.867 176.264 250.462 146.041C275.35 115.458 312.255 98.5 363.5 98.5ZM363.5 113.5C315.906 113.5 283.633 129.044 262.097 155.509C240.267 182.334 228.656 221.363 224.8 269.781C223.555 285.407 226.285 310.121 230.836 337.168C235.349 363.99 241.515 392.363 246.798 414.947C253.04 441.635 268.545 465.182 290.171 482.358L316.132 502.978C329.602 513.676 346.298 519.5 363.5 519.5C380.702 519.5 397.398 513.676 410.868 502.978L436.829 482.358C458.455 465.182 473.96 441.635 480.202 414.947C485.485 392.363 491.651 363.99 496.164 337.168C500.715 310.121 503.445 285.407 502.2 269.781C498.344 221.363 486.733 182.334 464.903 155.509C443.367 129.044 411.094 113.5 363.5 113.5Z" fill="#080A44"/>
<path d="M419.035 281.5C414.035 274 411.535 267 409.535 258C463.987 297.107 581.035 293 575.035 224C586.035 219 603.035 206 603.035 198.5C570.035 201.5 544.035 199.5 517.535 147.5C491.035 95.5002 381.035 2.50015 272.035 91.5002C272.403 84.1553 272.663 82.8113 273.541 78.2799C273.808 76.9012 274.133 75.2276 274.535 73.0002C239.183 68.3108 201.228 118.276 213.622 164.124C218.407 181.824 230.696 198.91 253.535 212L253.746 211.946C302.624 199.503 333.555 200.407 355.035 222.5C359.386 226.976 364.489 232.957 369.982 239.397C385.967 258.134 405.266 280.756 419.035 281.5Z" fill="#323755"/>
<path fill-rule="evenodd" clip-rule="evenodd" d="M576.035 217.485C513.042 223.432 496.648 201.121 475.035 150.985C450.282 163.251 437.008 167.561 401.535 163.984C319.535 108.982 240.035 131.984 240.035 195.484L254.035 208.984L285.035 200.984C293.035 163.984 329.996 165.091 345.035 188.484C349.421 195.307 353.629 202.575 357.948 210.035C371.354 233.191 385.832 258.198 410.035 277.484L401.535 242.984C449.535 294.484 560.035 296.484 576.035 229.484V217.485ZM380.035 198.5C416.035 249.501 518.035 281 572.035 231.001C550.535 241 492.535 241 471.035 221.5C460.162 211.639 449.395 207.548 439.284 203.706C429.401 199.951 420.146 196.434 412.035 188.001C354.327 128 297.035 127.001 276.035 174.5C300.035 150.5 344.035 147.5 380.035 198.5Z" fill="url(#paint10_radial_126_101)"/>
<path d="M220.535 111.999C243.535 68.5009 273.035 76.9986 273.035 76.9986C227.331 105.944 217.486 131.507 236.035 198.499C236.035 198.499 197.535 155.498 220.535 111.999Z" fill="#F8FEF7"/>
<path d="M472.034 99.4999C535.035 154.5 530.914 212.51 595.035 206.502C514.035 238 512.535 153.5 459.535 114C399.412 69.1919 338.535 61.5 283.035 91.0003C308.034 74.9991 382.415 21.2611 472.034 99.4999Z" fill="#F8FEF7"/>
<path d="M563.535 252.001C568.927 246.339 571.826 235.296 571.535 231C565.478 232.074 560.613 236.357 558.22 242.024C553.852 252.369 545.957 261.935 531.035 271.5C552.535 265.499 558.143 257.663 563.535 252.001Z" fill="#F8FEF7"/>
<path d="M287.035 15C292.839 10.4147 292.92 10.3528 292.922 10.3535L292.931 10.3652C292.935 10.3706 292.94 10.377 292.946 10.3838C292.957 10.3975 292.97 10.4141 292.985 10.4336C293.016 10.4733 293.056 10.5256 293.104 10.5889C293.201 10.7154 293.331 10.8884 293.491 11.1055C293.81 11.5395 294.247 12.1517 294.766 12.9209C295.8 14.455 297.174 16.6402 298.58 19.3076C301.339 24.5455 304.469 32.1124 305.019 40.5098C305.473 47.4339 303.636 54.4627 301.093 60.7373C300.618 61.9097 300.11 63.0734 299.578 64.2246C345.642 40.2397 390.779 43.847 428.622 59.708C474.705 79.0231 510.166 116.523 524.217 144.095C537.077 169.329 549.21 181.216 561.067 186.852C573.029 192.538 585.982 192.52 602.356 191.031L610.535 190.287V198.5C610.535 202.894 608.217 206.766 606.204 209.448C603.995 212.39 601.09 215.274 598.036 217.887C593.389 221.862 587.869 225.656 582.752 228.488C582.9 245.766 575.899 259.557 564.264 269.599C551.804 280.353 534.467 286.476 515.957 288.973C486.25 292.979 451.359 287.915 423.736 274.9C424.218 275.71 424.729 276.522 425.275 277.34L433.58 289.797L418.629 288.989C413.355 288.704 408.29 286.41 403.81 283.587C399.238 280.705 394.637 276.859 390.183 272.642C381.294 264.224 372.204 253.557 364.277 244.265C358.727 237.76 353.801 231.991 349.657 227.729C331.723 209.282 305.524 206.913 258.845 218.402C257.996 219.806 257.003 221.137 255.838 222.302L253.329 219.792L252.442 220.019L249.805 218.507C225.428 204.535 211.741 185.904 206.382 166.081C199.502 140.629 206.643 114.413 220.032 95.3066C233.24 76.458 253.961 62.7179 275.496 65.5615C276.973 61.1306 278.287 56.4769 279.342 51.79C282.531 37.624 282.932 25.0349 280.058 17.7539L292.919 10.3506L287.035 15ZM422.823 73.542C380.612 55.8505 328.867 54.7777 276.778 97.3096L263.699 107.989L264.544 91.124C264.818 85.6671 265.05 83.2268 265.499 80.5303C253.853 82.2531 241.635 90.616 232.316 103.915C220.988 120.081 215.349 141.772 220.863 162.167C224.901 177.104 235.083 192.009 254.699 203.975C302.263 192.195 336.269 192.44 360.412 217.271C364.971 221.961 370.25 228.155 375.688 234.529C383.745 243.974 392.298 253.987 400.497 261.75C401.47 262.672 402.428 263.55 403.368 264.384C402.957 262.839 402.576 261.257 402.213 259.627L397.951 240.447L413.91 251.908C439.328 270.163 480.199 278.659 513.952 274.107C530.759 271.841 544.963 266.443 554.463 258.243C563.658 250.307 568.85 239.45 567.563 224.649L567.103 219.366L571.931 217.172C576.573 215.062 582.75 211.137 587.827 206.871C576.583 206.965 565.458 205.547 554.627 200.398C538.609 192.784 524.492 177.671 510.852 150.905C498.403 126.477 465.614 91.4769 422.823 73.542Z" fill="#080A44"/>
</g>
</g>
</g>
<defs>
<linearGradient id="paint0_linear_126_101" x1="363.5" y1="10.3506" x2="363.5" y2="779.038" gradientUnits="userSpaceOnUse">
<stop stop-color="#FE667A"/>
<stop offset="0.614205" stop-color="#FFB198"/>
</linearGradient>
<linearGradient id="paint1_linear_126_101" x1="363.5" y1="10.3506" x2="363.5" y2="779.038" gradientUnits="userSpaceOnUse">
<stop stop-color="#FE667A"/>
<stop offset="0.614205" stop-color="#FFB198"/>
</linearGradient>
<linearGradient id="paint2_linear_126_101" x1="363.5" y1="10.3506" x2="363.5" y2="779.038" gradientUnits="userSpaceOnUse">
<stop stop-color="#FE667A"/>
<stop offset="0.614205" stop-color="#FFB198"/>
</linearGradient>
<linearGradient id="paint3_linear_126_101" x1="363.5" y1="10.3506" x2="363.5" y2="779.038" gradientUnits="userSpaceOnUse">
<stop stop-color="#FE667A"/>
<stop offset="0.614205" stop-color="#FFB198"/>
</linearGradient>
<linearGradient id="paint4_linear_126_101" x1="364.397" y1="395.607" x2="363.467" y2="779.038" gradientUnits="userSpaceOnUse">
<stop stop-color="#F9B39F"/>
<stop offset="0.62" stop-color="#C57679"/>
</linearGradient>
<radialGradient id="paint5_radial_126_101" cx="0" cy="0" r="1" gradientUnits="userSpaceOnUse" gradientTransform="translate(364.397 395.607) scale(261.819 640.311)">
<stop offset="0.652936" stop-color="#FCB19A"/>
<stop offset="0.924307" stop-color="#DA7E69"/>
</radialGradient>
<radialGradient id="paint6_radial_126_101" cx="0" cy="0" r="1" gradientUnits="userSpaceOnUse" gradientTransform="translate(368.276 587.323) scale(168.294 782.004)">
<stop stop-color="#F6AA98"/>
<stop offset="1" stop-color="#FFB099"/>
</radialGradient>
<linearGradient id="paint7_linear_126_101" x1="363.028" y1="470.688" x2="363.027" y2="612.835" gradientUnits="userSpaceOnUse">
<stop stop-color="#EB406E"/>
<stop offset="0.48" stop-color="#EB406E" stop-opacity="0.31"/>
</linearGradient>
<linearGradient id="paint8_linear_126_101" x1="363.028" y1="470.688" x2="363.027" y2="612.835" gradientUnits="userSpaceOnUse">
<stop stop-color="#EB406E"/>
<stop offset="0.48" stop-color="#EB406E" stop-opacity="0.31"/>
</linearGradient>
<linearGradient id="paint9_linear_126_101" x1="363.028" y1="506.771" x2="363.028" y2="722.178" gradientUnits="userSpaceOnUse">
<stop offset="0.377167" stop-color="#EF4E6D" stop-opacity="0.5"/>
<stop offset="0.665975" stop-color="#EF4E6D"/>
</linearGradient>
<radialGradient id="paint10_radial_126_101" cx="0" cy="0" r="1" gradientUnits="userSpaceOnUse" gradientTransform="translate(396.285 10.3506) rotate(61.831) scale(566.452 591.721)">
<stop stop-color="#1C264F"/>
<stop offset="0.613585" stop-color="#1B2651"/>
<stop offset="1" stop-color="#070B48"/>
</radialGradient>
<clipPath id="clip0_126_101">
<rect width="734" height="737" fill="white"/>
</clipPath>
</defs>
</svg>
